<svg width="921" height="235" viewBox="0 0 921 235" fill="none" xmlns="http://www.w3.org/2000/svg">
<path d="M530.059 196.375C512.338 196.375 498.499 191.333 488.54 181.248C478.581 171.162 473.602 157.204 473.602 139.373C473.602 121.541 478.581 107.583 488.54 97.4976C498.499 87.4125 512.338 82.37 530.059 82.37C547.78 82.37 561.62 87.4125 571.579 97.4976C581.684 107.583 586.736 121.541 586.736 139.373C586.736 157.204 581.684 171.162 571.579 181.248C561.62 191.333 547.78 196.375 530.059 196.375ZM530.059 175.547C538.993 175.547 546.023 172.332 551.148 165.901C556.274 159.47 558.837 150.627 558.837 139.373C558.837 128.118 556.274 119.276 551.148 112.844C546.023 106.413 538.993 103.198 530.059 103.198C521.126 103.198 514.096 106.413 508.97 112.844C503.991 119.276 501.501 128.118 501.501 139.373C501.501 150.627 503.991 159.47 508.97 165.901C514.096 172.332 521.126 175.547 530.059 175.547Z" fill="white"/>
<path d="M845.094 111.877C845.094 99.21 844.869 90.1194 844.418 84.6054H871.684C872.285 90.4174 872.585 96.9746 872.585 104.277V106.512H873.486C876.341 99.21 881.373 93.3979 888.584 89.0762C895.795 84.6054 904.057 82.37 913.371 82.37C915.174 82.37 917.427 82.5935 920.131 83.0406V105.618C919.53 105.32 917.728 105.171 914.723 105.171C907.512 105.171 900.752 107.108 894.443 110.983C888.284 114.858 883.326 120.074 879.571 126.631C875.815 133.039 873.937 139.969 873.937 147.42V196.375H845.094V111.877Z" fill="white"/>
<path d="M459.15 39.7269V196.375H429.34L365.012 93.4349V196.375H332.961V39.7269H364.116L427.098 141.101V39.7269H459.15Z" fill="white"/>
<path d="M828.754 149.677H752.25C754.595 165.17 763.608 172.916 779.29 172.916C785.739 172.916 791.308 171.82 795.998 169.628C800.834 167.435 805.524 163.781 810.067 158.666L825.236 173.136C820.986 180.151 814.537 185.778 805.89 190.017C797.39 194.256 788.01 196.375 777.751 196.375C760.604 196.375 747.267 191.406 737.741 181.467C728.214 171.382 723.451 157.496 723.451 139.811C723.451 121.979 728.214 107.948 737.741 97.7168C747.414 87.4856 760.677 82.37 777.531 82.37C793.653 82.37 806.184 87.4125 815.124 97.4976C824.21 107.583 828.754 121.614 828.754 139.592V149.677ZM801.274 129.287C801.274 121.833 799.075 115.987 794.679 111.748C790.428 107.363 784.493 105.171 776.872 105.171C769.984 105.171 764.414 107.437 760.164 111.967C755.914 116.352 753.203 122.564 752.03 130.603H801.274V129.287Z" fill="white"/>
<path d="M639.878 138.461L601.926 82.37H633.969L654.876 116.116L675.784 82.37H707.827L670.103 138.461L711.009 196.375H678.511L654.876 159.209L631.242 196.375H598.744L639.878 138.461Z" fill="white"/>
<path d="M808.462 219.063C808.224 218.335 807.91 217.682 807.521 217.106C807.138 216.521 806.68 216.024 806.147 215.613C805.62 215.202 805.022 214.888 804.351 214.672C803.681 214.455 802.945 214.347 802.145 214.347C800.832 214.347 799.639 214.686 798.564 215.364C797.49 216.042 796.636 217.041 796.001 218.36C795.366 219.68 795.049 221.299 795.049 223.217C795.049 225.135 795.37 226.754 796.012 228.074C796.654 229.393 797.522 230.392 798.619 231.07C799.715 231.748 800.948 232.086 802.318 232.086C803.587 232.086 804.705 231.816 805.671 231.275C806.644 230.727 807.402 229.956 807.942 228.96C808.49 227.958 808.764 226.779 808.764 225.423L809.587 225.597H802.924V223.217H811.36V225.597C811.36 227.421 810.971 229.007 810.192 230.356C809.421 231.704 808.353 232.75 806.991 233.493C805.635 234.228 804.077 234.596 802.318 234.596C800.356 234.596 798.633 234.134 797.148 233.211C795.669 232.288 794.515 230.976 793.686 229.274C792.864 227.572 792.453 225.553 792.453 223.217C792.453 221.465 792.687 219.889 793.156 218.49C793.632 217.084 794.303 215.887 795.168 214.899C796.033 213.911 797.057 213.154 798.24 212.627C799.423 212.101 800.724 211.838 802.145 211.838C803.313 211.838 804.402 212.015 805.411 212.368C806.428 212.714 807.333 213.208 808.126 213.85C808.927 214.484 809.594 215.245 810.127 216.132C810.661 217.012 811.029 217.989 811.231 219.063H808.462Z" fill="white"/>
<path d="M822.047 234.293V212.141H829.532C831.262 212.141 832.683 212.436 833.793 213.028C834.904 213.612 835.726 214.416 836.26 215.44C836.793 216.464 837.06 217.628 837.06 218.934C837.06 220.239 836.793 221.396 836.26 222.406C835.726 223.415 834.908 224.208 833.804 224.785C832.701 225.355 831.291 225.64 829.575 225.64H823.518V223.217H829.488C830.671 223.217 831.623 223.044 832.344 222.698C833.072 222.352 833.599 221.861 833.923 221.227C834.255 220.585 834.421 219.82 834.421 218.934C834.421 218.047 834.255 217.271 833.923 216.608C833.591 215.945 833.061 215.433 832.333 215.072C831.605 214.704 830.642 214.52 829.445 214.52H824.729V234.293H822.047ZM832.474 224.342L837.925 234.293H834.81L829.445 224.342H832.474Z" fill="white"/>
<path d="M866.313 223.217C866.313 225.553 865.891 227.572 865.047 229.274C864.204 230.976 863.046 232.288 861.575 233.211C860.104 234.134 858.424 234.596 856.535 234.596C854.645 234.596 852.965 234.134 851.494 233.211C850.023 232.288 848.866 230.976 848.022 229.274C847.178 227.572 846.756 225.553 846.756 223.217C846.756 220.881 847.178 218.861 848.022 217.16C848.866 215.458 850.023 214.145 851.494 213.222C852.965 212.299 854.645 211.838 856.535 211.838C858.424 211.838 860.104 212.299 861.575 213.222C863.046 214.145 864.204 215.458 865.047 217.16C865.891 218.861 866.313 220.881 866.313 223.217ZM863.717 223.217C863.717 221.299 863.396 219.68 862.754 218.36C862.12 217.041 861.258 216.042 860.169 215.364C859.087 214.686 857.876 214.347 856.535 214.347C855.193 214.347 853.978 214.686 852.889 215.364C851.808 216.042 850.946 217.041 850.304 218.36C849.67 219.68 849.352 221.299 849.352 223.217C849.352 225.135 849.67 226.754 850.304 228.074C850.946 229.393 851.808 230.392 852.889 231.07C853.978 231.748 855.193 232.086 856.535 232.086C857.876 232.086 859.087 231.748 860.169 231.07C861.258 230.392 862.12 229.393 862.754 228.074C863.396 226.754 863.717 225.135 863.717 223.217Z" fill="white"/>
<path d="M891.453 212.141H894.135V226.808C894.135 228.322 893.778 229.674 893.064 230.864C892.358 232.047 891.359 232.981 890.068 233.666C888.777 234.344 887.263 234.682 885.525 234.682C883.787 234.682 882.273 234.344 880.982 233.666C879.691 232.981 878.689 232.047 877.975 230.864C877.269 229.674 876.915 228.322 876.915 226.808V212.141H879.598V226.592C879.598 227.673 879.836 228.636 880.312 229.48C880.787 230.316 881.465 230.976 882.345 231.459C883.232 231.935 884.292 232.173 885.525 232.173C886.758 232.173 887.818 231.935 888.705 231.459C889.592 230.976 890.27 230.316 890.739 229.48C891.215 228.636 891.453 227.673 891.453 226.592V212.141Z" fill="white"/>
<path d="M905.584 234.293V212.141H913.069C914.807 212.141 916.227 212.454 917.331 213.082C918.441 213.702 919.263 214.542 919.797 215.602C920.33 216.662 920.597 217.845 920.597 219.15C920.597 220.455 920.33 221.641 919.797 222.709C919.27 223.776 918.456 224.627 917.352 225.261C916.249 225.889 914.836 226.202 913.112 226.202H907.747V223.823H913.026C914.215 223.823 915.171 223.617 915.892 223.206C916.613 222.795 917.136 222.24 917.46 221.54C917.792 220.834 917.958 220.037 917.958 219.15C917.958 218.263 917.792 217.47 917.46 216.77C917.136 216.071 916.61 215.523 915.881 215.126C915.153 214.722 914.187 214.52 912.982 214.52H908.266V234.293H905.584Z" fill="white"/>
<path fill-rule="evenodd" clip-rule="evenodd" d="M0.97592 0H20.4332H34.4719H70.5767H103.376V0.0460765L103.742 0.0472302L148.758 50.1979L191.47 2.1714H288.059L202.002 99.1092C189.956 112.68 170.754 113.21 158.587 99.4601L90.7346 22.7822H54.7019L127.824 105.12C135.33 113.574 134.163 122.39 126.89 130.548L54.5093 211.755H90.7346L158.587 135.077C170.754 121.327 189.956 121.857 202.002 135.428L288.059 232.366H191.47L148.758 184.339L103.742 234.49H103.728V234.537H70.5767H34.2061H20.7852H0L104.918 117.269L21.168 22.781H20.4332V21.9517L0.97592 0Z" fill="white"/>
</svg>
