<svg width="921" height="235" viewBox="0 0 921 235" fill="none" xmlns="http://www.w3.org/2000/svg">
<path d="M530.405 196.375C512.684 196.375 498.844 191.333 488.885 181.248C478.927 171.162 473.947 157.204 473.947 139.373C473.947 121.541 478.927 107.583 488.885 97.4976C498.844 87.4125 512.684 82.37 530.405 82.37C548.126 82.37 561.965 87.4125 571.924 97.4976C582.029 107.583 587.082 121.541 587.082 139.373C587.082 157.204 582.029 171.162 571.924 181.248C561.965 191.333 548.126 196.375 530.405 196.375ZM530.405 175.547C539.338 175.547 546.368 172.332 551.494 165.901C556.62 159.47 559.183 150.627 559.183 139.373C559.183 128.118 556.62 119.276 551.494 112.844C546.368 106.413 539.338 103.198 530.405 103.198C521.471 103.198 514.441 106.413 509.316 112.844C504.336 119.276 501.847 128.118 501.847 139.373C501.847 150.627 504.336 159.47 509.316 165.901C514.441 172.332 521.471 175.547 530.405 175.547Z" fill="black"/>
<path d="M845.441 111.877C845.441 99.21 845.215 90.1194 844.765 84.6054H872.03C872.631 90.4174 872.932 96.9746 872.932 104.277V106.512H873.833C876.687 99.21 881.72 93.3979 888.931 89.0762C896.142 84.6054 904.404 82.37 913.718 82.37C915.521 82.37 917.774 82.5935 920.478 83.0406V105.618C919.877 105.32 918.074 105.171 915.07 105.171C907.859 105.171 901.099 107.108 894.79 110.983C888.63 114.858 883.673 120.074 879.917 126.631C876.162 133.039 874.284 139.969 874.284 147.42V196.375H845.441V111.877Z" fill="black"/>
<path d="M459.496 39.7269V196.375H429.686L365.359 93.4349V196.375H333.307V39.7269H364.462L427.444 141.101V39.7269H459.496Z" fill="black"/>
<path d="M829.1 149.677H752.597C754.942 165.17 763.955 172.916 779.637 172.916C786.085 172.916 791.655 171.82 796.344 169.628C801.181 167.435 805.871 163.781 810.414 158.666L825.583 173.136C821.333 180.151 814.884 185.778 806.237 190.017C797.737 194.256 788.357 196.375 778.098 196.375C760.95 196.375 747.614 191.406 738.087 181.467C728.561 171.382 723.798 157.496 723.798 139.811C723.798 121.979 728.561 107.948 738.087 97.7168C747.76 87.4856 761.024 82.37 777.878 82.37C793.999 82.37 806.53 87.4125 815.47 97.4976C824.557 107.583 829.1 121.614 829.1 139.592V149.677ZM801.621 129.287C801.621 121.833 799.422 115.987 795.025 111.748C790.775 107.363 784.84 105.171 777.218 105.171C770.33 105.171 764.761 107.437 760.511 111.967C756.261 116.352 753.549 122.564 752.377 130.603H801.621V129.287Z" fill="black"/>
<path d="M640.223 138.461L602.271 82.37H634.315L655.222 116.116L676.13 82.37H708.173L670.448 138.461L711.354 196.375H678.857L655.222 159.209L631.587 196.375H599.09L640.223 138.461Z" fill="black"/>
<path d="M808.807 219.063C808.569 218.335 808.256 217.682 807.866 217.106C807.484 216.521 807.026 216.024 806.493 215.613C805.966 215.202 805.368 214.888 804.697 214.672C804.026 214.455 803.291 214.347 802.49 214.347C801.178 214.347 799.985 214.686 798.91 215.364C797.836 216.042 796.981 217.041 796.347 218.36C795.712 219.68 795.395 221.299 795.395 223.217C795.395 225.135 795.716 226.754 796.357 228.074C796.999 229.393 797.868 230.392 798.964 231.07C800.06 231.748 801.293 232.086 802.664 232.086C803.933 232.086 805.05 231.816 806.017 231.275C806.99 230.727 807.747 229.956 808.288 228.96C808.836 227.958 809.11 226.779 809.11 225.423L809.932 225.597H803.269V223.217H811.706V225.597C811.706 227.421 811.317 229.007 810.538 230.356C809.766 231.704 808.699 232.75 807.336 233.493C805.981 234.228 804.423 234.596 802.664 234.596C800.702 234.596 798.979 234.134 797.493 233.211C796.015 232.288 794.861 230.976 794.032 229.274C793.21 227.572 792.799 225.553 792.799 223.217C792.799 221.465 793.033 219.889 793.502 218.49C793.978 217.084 794.648 215.887 795.514 214.899C796.379 213.911 797.403 213.154 798.586 212.627C799.768 212.101 801.07 211.838 802.49 211.838C803.659 211.838 804.748 212.015 805.757 212.368C806.774 212.714 807.679 213.208 808.472 213.85C809.272 214.484 809.939 215.245 810.473 216.132C811.007 217.012 811.374 217.989 811.576 219.063H808.807Z" fill="black"/>
<path d="M822.392 234.293V212.141H829.877C831.608 212.141 833.029 212.436 834.139 213.028C835.25 213.612 836.072 214.416 836.605 215.44C837.139 216.464 837.406 217.628 837.406 218.934C837.406 220.239 837.139 221.396 836.605 222.406C836.072 223.415 835.253 224.208 834.15 224.785C833.047 225.355 831.637 225.64 829.921 225.64H823.863V223.217H829.834C831.017 223.217 831.969 223.044 832.69 222.698C833.418 222.352 833.944 221.861 834.269 221.227C834.601 220.585 834.766 219.82 834.766 218.934C834.766 218.047 834.601 217.271 834.269 216.608C833.937 215.945 833.407 215.433 832.679 215.072C831.951 214.704 830.988 214.52 829.791 214.52H825.075V234.293H822.392ZM832.819 224.342L838.271 234.293H835.156L829.791 224.342H832.819Z" fill="black"/>
<path d="M866.658 223.217C866.658 225.553 866.237 227.572 865.393 229.274C864.549 230.976 863.392 232.288 861.921 233.211C860.45 234.134 858.77 234.596 856.88 234.596C854.991 234.596 853.311 234.134 851.84 233.211C850.369 232.288 849.211 230.976 848.368 229.274C847.524 227.572 847.102 225.553 847.102 223.217C847.102 220.881 847.524 218.861 848.368 217.16C849.211 215.458 850.369 214.145 851.84 213.222C853.311 212.299 854.991 211.838 856.88 211.838C858.77 211.838 860.45 212.299 861.921 213.222C863.392 214.145 864.549 215.458 865.393 217.16C866.237 218.861 866.658 220.881 866.658 223.217ZM864.063 223.217C864.063 221.299 863.742 219.68 863.1 218.36C862.465 217.041 861.604 216.042 860.515 215.364C859.433 214.686 858.222 214.347 856.88 214.347C855.539 214.347 854.324 214.686 853.235 215.364C852.154 216.042 851.292 217.041 850.65 218.36C850.015 219.68 849.698 221.299 849.698 223.217C849.698 225.135 850.015 226.754 850.65 228.074C851.292 229.393 852.154 230.392 853.235 231.07C854.324 231.748 855.539 232.086 856.88 232.086C858.222 232.086 859.433 231.748 860.515 231.07C861.604 230.392 862.465 229.393 863.1 228.074C863.742 226.754 864.063 225.135 864.063 223.217Z" fill="black"/>
<path d="M891.798 212.141H894.481V226.808C894.481 228.322 894.124 229.674 893.41 230.864C892.703 232.047 891.705 232.981 890.414 233.666C889.123 234.344 887.609 234.682 885.871 234.682C884.133 234.682 882.619 234.344 881.328 233.666C880.037 232.981 879.035 232.047 878.321 230.864C877.614 229.674 877.261 228.322 877.261 226.808V212.141H879.943V226.592C879.943 227.673 880.181 228.636 880.657 229.48C881.133 230.316 881.811 230.976 882.691 231.459C883.578 231.935 884.638 232.173 885.871 232.173C887.104 232.173 888.164 231.935 889.051 231.459C889.938 230.976 890.616 230.316 891.084 229.48C891.56 228.636 891.798 227.673 891.798 226.592V212.141Z" fill="black"/>
<path d="M905.93 234.293V212.141H913.415C915.152 212.141 916.573 212.454 917.676 213.082C918.787 213.702 919.609 214.542 920.143 215.602C920.676 216.662 920.943 217.845 920.943 219.15C920.943 220.455 920.676 221.641 920.143 222.709C919.616 223.776 918.801 224.627 917.698 225.261C916.595 225.889 915.181 226.202 913.458 226.202H908.093V223.823H913.371C914.561 223.823 915.517 223.617 916.238 223.206C916.959 222.795 917.482 222.24 917.806 221.54C918.138 220.834 918.304 220.037 918.304 219.15C918.304 218.263 918.138 217.47 917.806 216.77C917.482 216.071 916.955 215.523 916.227 215.126C915.499 214.722 914.532 214.52 913.328 214.52H908.612V234.293H905.93Z" fill="black"/>
<path fill-rule="evenodd" clip-rule="evenodd" d="M1.32162 0H20.7789H34.8176H70.9224H103.721V0.0460765L104.088 0.0472302L149.104 50.1979L191.815 2.1714H288.404L202.347 99.1092C190.302 112.68 171.1 113.21 158.933 99.4601L91.0803 22.7822H55.0476L128.169 105.12C135.676 113.574 134.508 122.39 127.236 130.548L54.855 211.755H91.0803L158.933 135.077C171.1 121.327 190.302 121.857 202.347 135.428L288.404 232.366H191.815L149.104 184.339L104.088 234.49H104.074V234.537H70.9224H34.5518H21.1309H0.345703L105.263 117.269L21.5137 22.781H20.7789V21.9517L1.32162 0Z" fill="black"/>
</svg>
