<svg width="701" height="179" viewBox="0 0 701 179" fill="none" xmlns="http://www.w3.org/2000/svg">
<path d="M403.912 149.359C390.434 149.359 379.908 145.523 372.333 137.853C364.759 130.182 360.972 119.566 360.972 106.004C360.972 92.4414 364.759 81.825 372.333 74.1545C379.908 66.4841 390.434 62.6488 403.912 62.6488C417.39 62.6488 427.916 66.4841 435.491 74.1545C443.177 81.825 447.02 92.4414 447.02 106.004C447.02 119.566 443.177 130.182 435.491 137.853C427.916 145.523 417.39 149.359 403.912 149.359ZM403.912 133.517C410.707 133.517 416.054 131.072 419.952 126.18C423.851 121.289 425.8 114.564 425.8 106.004C425.8 97.4439 423.851 90.7184 419.952 85.827C416.054 80.9357 410.707 78.49 403.912 78.49C397.117 78.49 391.771 80.9357 387.872 85.827C384.085 90.7184 382.191 97.4439 382.191 106.004C382.191 114.564 384.085 121.289 387.872 126.18C391.771 131.072 397.117 133.517 403.912 133.517Z" fill="white"/>
<path d="M643.521 85.0914C643.521 75.4569 643.35 68.5428 643.007 64.349H663.745C664.202 68.7695 664.43 73.7567 664.43 79.3107V81.0109H665.116C667.287 75.4569 671.114 71.0364 676.599 67.7494C682.083 64.349 688.367 62.6488 695.451 62.6488C696.822 62.6488 698.536 62.8188 700.593 63.1589V80.3308C700.136 80.1041 698.765 79.9908 696.48 79.9908C690.995 79.9908 685.854 81.4643 681.055 84.4113C676.37 87.3583 672.6 91.3254 669.743 96.3126C666.887 101.187 665.458 106.457 665.458 112.124V149.359H643.521V85.0914Z" fill="white"/>
<path d="M349.98 30.2155V149.359H327.307L278.381 71.0646V149.359H254.003V30.2155H277.699L325.602 107.318V30.2155H349.98Z" fill="white"/>
<path d="M631.093 113.841H572.906C574.689 125.625 581.545 131.516 593.472 131.516C598.376 131.516 602.612 130.683 606.179 129.015C609.858 127.348 613.425 124.569 616.88 120.678L628.417 131.683C625.185 137.019 620.28 141.299 613.704 144.523C607.238 147.747 600.104 149.359 592.301 149.359C579.259 149.359 569.116 145.579 561.87 138.02C554.625 130.349 551.002 119.788 551.002 106.337C551.002 92.7749 554.625 82.1029 561.87 74.3213C569.227 66.5396 579.315 62.6488 592.134 62.6488C604.396 62.6488 613.926 66.4841 620.726 74.1545C627.637 81.825 631.093 92.497 631.093 106.17V113.841ZM610.192 98.3333C610.192 92.6638 608.52 88.2171 605.176 84.9933C601.943 81.6583 597.429 79.9908 591.633 79.9908C586.394 79.9908 582.158 81.7139 578.925 85.16C575.692 88.495 573.63 93.2196 572.738 99.3338H610.192V98.3333Z" fill="white"/>
<path d="M487.438 105.31L458.572 62.6488H482.944L498.845 88.3149L514.747 62.6488H539.119L510.426 105.31L541.538 149.359H516.821L498.845 121.091L480.869 149.359H456.152L487.438 105.31Z" fill="white"/>
<path d="M614.898 166.615C614.717 166.061 614.479 165.565 614.183 165.126C613.892 164.682 613.544 164.303 613.138 163.991C612.737 163.678 612.282 163.439 611.772 163.275C611.262 163.11 610.703 163.028 610.094 163.028C609.096 163.028 608.188 163.286 607.371 163.801C606.554 164.317 605.904 165.076 605.421 166.08C604.938 167.084 604.697 168.315 604.697 169.774C604.697 171.233 604.941 172.464 605.429 173.468C605.917 174.472 606.578 175.231 607.412 175.747C608.246 176.262 609.183 176.52 610.226 176.52C611.191 176.52 612.041 176.314 612.776 175.903C613.516 175.486 614.092 174.899 614.503 174.142C614.92 173.38 615.129 172.483 615.129 171.452L615.754 171.584H610.686V169.774H617.103V171.584C617.103 172.972 616.807 174.178 616.215 175.204C615.628 176.229 614.816 177.025 613.78 177.59C612.748 178.149 611.564 178.429 610.226 178.429C608.734 178.429 607.423 178.078 606.293 177.376C605.169 176.674 604.291 175.675 603.661 174.381C603.035 173.087 602.723 171.551 602.723 169.774C602.723 168.441 602.901 167.243 603.257 166.179C603.619 165.109 604.129 164.199 604.788 163.448C605.446 162.696 606.225 162.12 607.124 161.72C608.023 161.32 609.013 161.119 610.094 161.119C610.982 161.119 611.811 161.254 612.578 161.522C613.352 161.786 614.04 162.161 614.643 162.65C615.252 163.132 615.759 163.711 616.165 164.385C616.571 165.055 616.851 165.798 617.004 166.615H614.898Z" fill="white"/>
<path d="M625.231 178.198V161.35H630.924C632.24 161.35 633.321 161.575 634.165 162.024C635.01 162.469 635.635 163.08 636.041 163.859C636.447 164.638 636.65 165.523 636.65 166.516C636.65 167.509 636.447 168.389 636.041 169.157C635.635 169.925 635.013 170.528 634.173 170.967C633.334 171.4 632.262 171.617 630.957 171.617H626.35V169.774H630.891C631.79 169.774 632.514 169.642 633.063 169.379C633.617 169.116 634.017 168.743 634.264 168.26C634.516 167.772 634.642 167.191 634.642 166.516C634.642 165.842 634.516 165.252 634.264 164.747C634.012 164.243 633.609 163.853 633.055 163.579C632.501 163.299 631.768 163.16 630.858 163.16H627.271V178.198H625.231ZM633.162 170.63L637.308 178.198H634.939L630.858 170.63H633.162Z" fill="white"/>
<path d="M658.899 169.774C658.899 171.551 658.578 173.087 657.936 174.381C657.295 175.675 656.414 176.674 655.295 177.376C654.177 178.078 652.899 178.429 651.462 178.429C650.025 178.429 648.747 178.078 647.628 177.376C646.509 176.674 645.629 175.675 644.987 174.381C644.345 173.087 644.025 171.551 644.025 169.774C644.025 167.997 644.345 166.461 644.987 165.167C645.629 163.873 646.509 162.874 647.628 162.172C648.747 161.47 650.025 161.119 651.462 161.119C652.899 161.119 654.177 161.47 655.295 162.172C656.414 162.874 657.295 163.873 657.936 165.167C658.578 166.461 658.899 167.997 658.899 169.774ZM656.924 169.774C656.924 168.315 656.68 167.084 656.192 166.08C655.709 165.076 655.054 164.317 654.226 163.801C653.403 163.286 652.482 163.028 651.462 163.028C650.442 163.028 649.517 163.286 648.689 163.801C647.867 164.317 647.211 165.076 646.723 166.08C646.24 167.084 645.999 168.315 645.999 169.774C645.999 171.233 646.24 172.464 646.723 173.468C647.211 174.472 647.867 175.231 648.689 175.747C649.517 176.262 650.442 176.52 651.462 176.52C652.482 176.52 653.403 176.262 654.226 175.747C655.054 175.231 655.709 174.472 656.192 173.468C656.68 172.464 656.924 171.233 656.924 169.774Z" fill="white"/>
<path d="M678.02 161.35H680.06V172.505C680.06 173.657 679.788 174.685 679.245 175.59C678.708 176.49 677.948 177.2 676.967 177.721C675.985 178.237 674.833 178.494 673.511 178.494C672.189 178.494 671.038 178.237 670.056 177.721C669.074 177.2 668.312 176.49 667.769 175.59C667.231 174.685 666.963 173.657 666.963 172.505V161.35H669.003V172.341C669.003 173.163 669.184 173.896 669.546 174.537C669.908 175.174 670.423 175.675 671.093 176.043C671.767 176.405 672.573 176.586 673.511 176.586C674.449 176.586 675.255 176.405 675.93 176.043C676.605 175.675 677.12 175.174 677.477 174.537C677.839 173.896 678.02 173.163 678.02 172.341V161.35Z" fill="white"/>
<path d="M688.768 178.198V161.35H694.46C695.782 161.35 696.863 161.588 697.702 162.065C698.546 162.537 699.172 163.176 699.578 163.982C699.983 164.789 700.186 165.688 700.186 166.681C700.186 167.673 699.983 168.576 699.578 169.387C699.177 170.199 698.557 170.846 697.718 171.329C696.879 171.806 695.804 172.045 694.493 172.045H690.413V170.235H694.428C695.333 170.235 696.059 170.078 696.608 169.766C697.156 169.453 697.554 169.031 697.801 168.499C698.053 167.961 698.179 167.355 698.179 166.681C698.179 166.006 698.053 165.403 697.801 164.871C697.554 164.339 697.153 163.922 696.599 163.62C696.046 163.313 695.311 163.16 694.395 163.16H690.808V178.198H688.768Z" fill="white"/>
<path fill-rule="evenodd" clip-rule="evenodd" d="M0.742264 0H15.541H26.2186H53.6792H78.6254V0.0350448L78.9039 0.0359223L113.142 38.1795L145.628 1.65152H219.091L153.638 75.3804C144.477 85.7021 129.872 86.1055 120.618 75.6473L69.0108 17.3277H41.6051L97.22 79.9522C102.929 86.3823 102.041 93.0872 96.5101 99.2917L41.4586 161.056H69.0108L120.618 102.737C129.872 92.2786 144.477 92.682 153.638 103.004L219.091 176.733H145.628L113.142 140.205L78.9039 178.348H78.8932V178.384H53.6792H26.0164H15.8088H0L79.7981 89.192L16.0999 17.3268H15.541V16.696L0.742264 0Z" fill="url(#paint0_linear_397_50)"/>
<defs>
<linearGradient id="paint0_linear_397_50" x1="109.546" y1="0" x2="109.546" y2="178.384" gradientUnits="userSpaceOnUse">
<stop stop-color="#005CFE"/>
<stop offset="1" stop-color="#0140B3"/>
</linearGradient>
</defs>
</svg>
