<svg width="289" height="235" viewBox="0 0 289 235" fill="none" xmlns="http://www.w3.org/2000/svg">
<path fill-rule="evenodd" clip-rule="evenodd" d="M1.32162 0H20.7789H34.8176H70.9224H103.721V0.0460765L104.088 0.0472302L149.104 50.1979L191.815 2.1714H288.404L202.347 99.1092C190.302 112.68 171.1 113.21 158.933 99.4601L91.0803 22.7822H55.0476L128.169 105.12C135.676 113.574 134.508 122.39 127.236 130.548L54.855 211.755H91.0803L158.933 135.077C171.1 121.327 190.302 121.857 202.347 135.428L288.404 232.366H191.815L149.104 184.339L104.088 234.49H104.074V234.537H70.9224H34.5518H21.1309H0.345703L105.263 117.269L21.5137 22.781H20.7789V21.9517L1.32162 0Z" fill="black"/>
</svg>
