<svg width="289" height="235" viewBox="0 0 289 235" fill="none" xmlns="http://www.w3.org/2000/svg">
<path fill-rule="evenodd" clip-rule="evenodd" d="M0.97592 0H20.4332H34.4719H70.5767H103.376V0.0460765L103.742 0.0472302L148.758 50.1979L191.47 2.1714H288.059L202.002 99.1092C189.956 112.68 170.754 113.21 158.587 99.4601L90.7346 22.7822H54.7019L127.824 105.12C135.33 113.574 134.163 122.39 126.89 130.548L54.5093 211.755H90.7346L158.587 135.077C170.754 121.327 189.956 121.857 202.002 135.428L288.059 232.366H191.47L148.758 184.339L103.742 234.49H103.728V234.537H70.5767H34.2061H20.7852H0L104.918 117.269L21.168 22.781H20.4332V21.9517L0.97592 0Z" fill="white"/>
</svg>
